<svg width="241" height="219" viewBox="0 0 241 219" fill="none" xmlns="http://www.w3.org/2000/svg">
<mask id="path-1-outside-1_68_2" maskUnits="userSpaceOnUse" x="12" y="-13" width="185" height="244" fill="black">
<rect fill="white" x="12" y="-13" width="185" height="244"/>
<path d="M118 217.4C115.733 217.933 113.733 217.667 112 216.6C110.4 215.533 109.2 213.8 108.4 211.4L88 149.8C87.0667 147.133 87.1333 144.867 88.2 143C89.4 141 91.3333 139.733 94 139.2C96.2667 138.667 98.2 139 99.8 140.2C101.533 141.267 102.733 142.933 103.4 145.2L124 207C125.067 209.533 125 211.733 123.8 213.6C122.6 215.6 120.667 216.867 118 217.4ZM86.6 182.8C77.4 182.8 69.0667 181.267 61.6 178.2C54.1333 175 47.7333 170.467 42.4 164.6C37.0667 158.733 32.9333 151.667 30 143.4C27.2 135.133 25.8 125.933 25.8 115.8C25.8 107.933 26.6667 99.7333 28.4 91.2C30.1333 82.5333 32.8 73.8667 36.4 65.2C40 56.5333 44.4667 48.3333 49.8 40.6C55.2667 32.7333 61.6 25.8 68.8 19.8C76 13.6667 84.2 8.86666 93.4 5.39999C102.6 1.93332 112.667 0.199989 123.6 0.199989C132.667 0.199989 140.867 1.79999 148.2 4.99999C155.667 8.06665 162.067 12.5333 167.4 18.4C172.733 24.2667 176.8 31.3333 179.6 39.6C182.533 47.8667 184 57.0667 184 67.2C184 75.8667 183.067 84.6667 181.2 93.6C179.333 102.533 176.467 111.333 172.6 120C168.867 128.667 164.267 136.8 158.8 144.4C153.333 151.867 146.933 158.533 139.6 164.4C132.4 170.133 124.4 174.667 115.6 178C106.8 181.2 97.1333 182.8 86.6 182.8ZM89.6 165.8C97.8667 165.8 105.467 164.4 112.4 161.6C119.333 158.8 125.6 154.933 131.2 150C136.933 144.933 141.933 139.267 146.2 133C150.467 126.6 154 119.8 156.8 112.6C159.733 105.4 161.933 98.2 163.4 91C164.867 83.8 165.6 76.9333 165.6 70.4C165.6 61.7333 164.667 54.0667 162.8 47.4C160.933 40.7333 158.067 35.2 154.2 30.8C150.333 26.2667 145.6 22.8667 140 20.6C134.533 18.3333 128.067 17.2 120.6 17.2C112.6 17.2 105.067 18.6667 98 21.6C91.0667 24.4 84.8 28.3333 79.2 33.4C73.6 38.4667 68.6 44.2 64.2 50.6C59.8 57 56.1333 63.8 53.2 71C50.2667 78.0667 48.0667 85.1333 46.6 92.2C45.1333 99.2667 44.4 106.067 44.4 112.6C44.4 121.133 45.3333 128.733 47.2 135.4C49.0667 142.067 51.8667 147.667 55.6 152.2C59.3333 156.6 64 160 69.6 162.4C75.3333 164.667 82 165.8 89.6 165.8Z"/>
</mask>
<path d="M118 217.4L115.45 204.652L115.236 204.695L115.022 204.746L118 217.4ZM112 216.6L104.789 227.417L104.985 227.548L105.187 227.672L112 216.6ZM108.4 211.4L96.0591 215.487L96.0631 215.499L96.0671 215.511L108.4 211.4ZM88 149.8L100.341 145.713L100.306 145.609L100.27 145.505L88 149.8ZM88.2 143L77.0526 136.312L76.9814 136.43L76.9128 136.55L88.2 143ZM94 139.2L96.5495 151.948L96.7643 151.905L96.9775 151.854L94 139.2ZM99.8 140.2L92 150.6L92.4779 150.958L92.9867 151.272L99.8 140.2ZM103.4 145.2L90.9283 148.868L90.9937 149.091L91.0671 149.311L103.4 145.2ZM124 207L111.667 211.111L111.825 211.585L112.019 212.045L124 207ZM123.8 213.6L112.865 206.57L112.756 206.739L112.653 206.912L123.8 213.6ZM61.6 178.2L56.4791 190.149L56.5698 190.188L56.6611 190.225L61.6 178.2ZM42.4 164.6L52.0192 155.855L52.0192 155.855L42.4 164.6ZM30 143.4L17.6871 147.57L17.7171 147.659L17.7484 147.747L30 143.4ZM28.4 91.2L41.1398 93.7878L41.1437 93.7686L41.1475 93.7495L28.4 91.2ZM36.4 65.2L48.4055 70.1869L48.4055 70.1869L36.4 65.2ZM49.8 40.6L39.1245 33.1815L39.1114 33.2004L39.0982 33.2195L49.8 40.6ZM68.8 19.8L77.1224 29.7869L77.1765 29.7418L77.2301 29.6962L68.8 19.8ZM93.4 5.39999L97.9839 17.565L97.9839 17.565L93.4 5.39999ZM148.2 4.99999L143.001 16.915L143.13 16.9715L143.261 17.0252L148.2 4.99999ZM167.4 18.4L157.781 27.1447L157.781 27.1447L167.4 18.4ZM179.6 39.6L167.287 43.7705L167.317 43.8591L167.348 43.9473L179.6 39.6ZM172.6 120L160.728 114.703L160.694 114.78L160.661 114.857L172.6 120ZM158.8 144.4L169.289 152.08L169.322 152.035L169.353 151.991L158.8 144.4ZM139.6 164.4L147.698 174.57L147.71 174.56L147.721 174.551L139.6 164.4ZM115.6 178L120.043 190.217L120.124 190.188L120.205 190.157L115.6 178ZM112.4 161.6L107.532 149.546L107.532 149.546L112.4 161.6ZM131.2 150L139.793 159.755L139.801 159.748L139.809 159.741L131.2 150ZM146.2 133L156.946 140.316L156.981 140.264L157.017 140.211L146.2 133ZM156.8 112.6L144.761 107.695L144.722 107.791L144.684 107.888L156.8 112.6ZM163.4 91L150.662 88.4051L150.662 88.4051L163.4 91ZM162.8 47.4L150.281 50.9052L150.281 50.9052L162.8 47.4ZM154.2 30.8L144.309 39.2363L144.371 39.3093L144.435 39.3815L154.2 30.8ZM140 20.6L135.021 32.6086L135.072 32.6297L135.122 32.6503L140 20.6ZM98 21.6L102.868 33.6541L102.926 33.6307L102.984 33.6067L98 21.6ZM79.2 33.4L87.9219 43.04L87.9219 43.04L79.2 33.4ZM64.2 50.6L74.9125 57.9649L74.9126 57.9649L64.2 50.6ZM53.2 71L65.2067 75.9839L65.2231 75.9444L65.2392 75.9049L53.2 71ZM46.6 92.2L33.8713 89.5582L33.8713 89.5582L46.6 92.2ZM47.2 135.4L59.7185 131.895L59.7185 131.895L47.2 135.4ZM55.6 152.2L45.5649 160.464L45.6256 160.538L45.6874 160.611L55.6 152.2ZM69.6 162.4L64.4791 174.349L64.6487 174.422L64.8204 174.489L69.6 162.4ZM115.022 204.746C115.194 204.705 115.73 204.609 116.518 204.714C117.341 204.824 118.141 205.115 118.813 205.528L105.187 227.672C110.274 230.802 115.889 231.252 120.978 230.054L115.022 204.746ZM119.211 205.783C119.901 206.243 120.345 206.749 120.589 207.1C120.813 207.425 120.819 207.546 120.733 207.289L96.0671 215.511C97.4922 219.786 100.12 224.304 104.789 227.417L119.211 205.783ZM120.741 207.313L100.341 145.713L75.6591 153.887L96.0591 215.487L120.741 207.313ZM100.27 145.505C100.205 145.318 100.368 145.688 100.344 146.482C100.319 147.36 100.07 148.429 99.4872 149.45L76.9128 136.55C73.4332 142.64 73.9676 149.06 75.7298 154.095L100.27 145.505ZM99.3474 149.688C98.9486 150.353 98.3625 150.973 97.6743 151.424C97.0273 151.848 96.5639 151.945 96.5495 151.948L91.4505 126.452C85.846 127.573 80.4547 130.641 77.0526 136.312L99.3474 149.688ZM96.9775 151.854C96.7227 151.914 95.9867 152.041 94.9412 151.861C93.839 151.671 92.8134 151.21 92 150.6L107.6 129.8C102.397 125.897 96.3527 125.291 91.0225 126.546L96.9775 151.854ZM92.9867 151.272C92.3769 150.896 91.8444 150.394 91.4501 149.846C91.0739 149.324 90.9479 148.935 90.9283 148.868L115.872 141.532C114.454 136.711 111.518 132.147 106.613 129.128L92.9867 151.272ZM91.0671 149.311L111.667 211.111L136.333 202.889L115.733 141.089L91.0671 149.311ZM112.019 212.045C112.003 212.008 111.721 211.324 111.756 210.156C111.795 208.878 112.2 207.604 112.865 206.57L134.735 220.63C138.816 214.282 138.262 207.373 135.981 201.955L112.019 212.045ZM112.653 206.912C113.051 206.247 113.638 205.627 114.326 205.176C114.973 204.752 115.436 204.655 115.45 204.652L120.55 230.148C126.154 229.027 131.545 225.959 134.947 220.288L112.653 206.912ZM86.6 169.8C78.8589 169.8 72.2348 168.514 66.539 166.175L56.6611 190.225C65.8986 194.019 75.9411 195.8 86.6 195.8V169.8ZM66.721 166.251C60.9226 163.766 56.0686 160.31 52.0192 155.855L32.7808 173.345C39.398 180.624 47.3441 186.234 56.4791 190.149L66.721 166.251ZM52.0192 155.855C47.9641 151.395 44.6695 145.867 42.2516 139.053L17.7484 147.747C21.1972 157.467 26.1692 166.072 32.7808 173.345L52.0192 155.855ZM42.3129 139.23C40.0345 132.503 38.8 124.739 38.8 115.8H12.8C12.8 127.128 14.3655 137.764 17.6871 147.57L42.3129 139.23ZM38.8 115.8C38.8 108.889 39.5614 101.559 41.1398 93.7878L15.6602 88.6122C13.772 97.908 12.8 106.978 12.8 115.8H38.8ZM41.1475 93.7495C42.704 85.9673 45.112 78.1155 48.4055 70.1869L24.3945 60.2131C20.488 69.6178 17.5627 79.0994 15.6525 88.6505L41.1475 93.7495ZM48.4055 70.1869C51.6556 62.3624 55.6851 54.9646 60.5018 47.9805L39.0982 33.2195C33.2482 41.702 28.3444 50.7042 24.3945 60.2131L48.4055 70.1869ZM60.4755 48.0185C65.2914 41.0883 70.8382 35.0237 77.1224 29.7869L60.4776 9.81311C52.3618 16.5763 45.242 24.3784 39.1245 33.1815L60.4755 48.0185ZM77.2301 29.6962C83.2437 24.5734 90.1312 20.524 97.9839 17.565L88.8161 -6.76503C78.2689 -2.79071 68.7563 2.75991 60.3699 9.90382L77.2301 29.6962ZM97.9839 17.565C105.564 14.7089 114.058 13.2 123.6 13.2V-12.8C111.276 -12.8 99.6364 -10.8423 88.8161 -6.76502L97.9839 17.565ZM123.6 13.2C131.115 13.2 137.512 14.52 143.001 16.915L153.399 -6.91503C144.221 -10.92 134.218 -12.8 123.6 -12.8V13.2ZM143.261 17.0252C148.977 19.3728 153.769 22.7316 157.781 27.1447L177.019 9.65525C170.364 2.335 162.356 -3.23952 153.139 -7.02527L143.261 17.0252ZM157.781 27.1447C161.795 31.5602 165.003 37.0257 167.287 43.7705L191.913 35.4295C188.597 25.6409 183.672 16.9731 177.019 9.65524L157.781 27.1447ZM167.348 43.9473C169.716 50.62 171 58.3219 171 67.2H197C197 55.8114 195.351 45.1134 191.852 35.2527L167.348 43.9473ZM171 67.2C171 74.9273 170.168 82.8361 168.475 90.941L193.925 96.259C195.965 86.4973 197 76.806 197 67.2H171ZM168.475 90.941C166.805 98.9318 164.232 106.849 160.728 114.703L184.472 125.297C188.701 115.817 191.862 106.135 193.925 96.259L168.475 90.941ZM160.661 114.857C157.296 122.667 153.16 129.978 148.247 136.809L169.353 151.991C175.374 143.622 180.437 134.667 184.539 125.143L160.661 114.857ZM148.311 136.72C143.531 143.249 137.931 149.087 131.479 154.249L147.721 174.551C155.936 167.979 163.135 160.485 169.289 152.08L148.311 136.72ZM131.502 154.23C125.38 159.105 118.563 162.976 110.995 165.843L120.205 190.157C130.237 186.357 139.42 181.161 147.698 174.57L131.502 154.23ZM111.157 165.783C103.948 168.404 95.8058 169.8 86.6 169.8V195.8C98.4609 195.8 109.652 193.996 120.043 190.217L111.157 165.783ZM89.6 178.8C99.3587 178.8 108.632 177.142 117.268 173.654L107.532 149.546C102.301 151.658 96.3746 152.8 89.6 152.8V178.8ZM117.268 173.654C125.562 170.305 133.088 165.661 139.793 159.755L122.607 140.245C118.112 144.205 113.105 147.295 107.532 149.546L117.268 173.654ZM139.809 159.741C146.345 153.965 152.065 147.485 156.946 140.316L135.454 125.684C131.802 131.048 127.522 135.902 122.591 140.259L139.809 159.741ZM157.017 140.211C161.808 133.024 165.776 125.386 168.916 117.312L144.684 107.888C142.224 114.214 139.125 120.176 135.383 125.789L157.017 140.211ZM168.839 117.505C172.059 109.601 174.502 101.629 176.138 93.5948L150.662 88.4051C149.365 94.7709 147.407 101.199 144.761 107.695L168.839 117.505ZM176.138 93.5949C177.758 85.6448 178.6 77.9049 178.6 70.4H152.6C152.6 75.9618 151.975 81.9552 150.662 88.4051L176.138 93.5949ZM178.6 70.4C178.6 60.8322 177.573 51.9468 175.319 43.8948L150.281 50.9052C151.76 56.1865 152.6 62.6344 152.6 70.4H178.6ZM175.319 43.8948C173.021 35.6896 169.332 28.3258 163.965 22.2185L144.435 39.3815C146.801 42.0742 148.846 45.777 150.281 50.9052L175.319 43.8948ZM164.091 22.3637C158.848 16.2173 152.387 11.5891 144.878 8.54968L135.122 32.6503C138.813 34.1442 141.818 36.316 144.309 39.2363L164.091 22.3637ZM144.979 8.59134C137.58 5.52332 129.345 4.2 120.6 4.2V30.2C126.789 30.2 131.487 31.1433 135.021 32.6086L144.979 8.59134ZM120.6 4.2C110.969 4.2 101.734 5.97446 93.0161 9.59329L102.984 33.6067C108.399 31.3589 114.231 30.2 120.6 30.2V4.2ZM93.132 9.54585C84.7678 12.9237 77.1994 17.6789 70.4781 23.76L87.9219 43.04C92.4006 38.9878 97.3655 35.8763 102.868 33.6541L93.132 9.54585ZM70.4781 23.76C64.1073 29.5241 58.4439 36.0257 53.4875 43.2351L74.9126 57.9649C78.7561 52.3743 83.0927 47.4092 87.9219 43.04L70.4781 23.76ZM53.4875 43.2351C48.5576 50.4059 44.4463 58.0307 41.1608 66.0951L65.2392 75.9049C67.8204 69.5693 71.0424 63.5941 74.9125 57.9649L53.4875 43.2351ZM41.1933 66.0161C37.9648 73.7939 35.514 81.6434 33.8713 89.5582L59.3287 94.8418C60.6194 88.6233 62.5685 82.3394 65.2067 75.9839L41.1933 66.0161ZM33.8713 89.5582C32.2428 97.4046 31.4 105.092 31.4 112.6H57.4C57.4 107.041 58.0239 101.129 59.3287 94.8418L33.8713 89.5582ZM31.4 112.6C31.4 122.055 32.4313 130.869 34.6815 138.905L59.7185 131.895C58.2353 126.598 57.4 120.212 57.4 112.6H31.4ZM34.6815 138.905C36.9497 147.006 40.4947 154.307 45.5649 160.464L65.6351 143.936C63.2387 141.026 61.1836 137.127 59.7185 131.895L34.6815 138.905ZM45.6874 160.611C50.7952 166.631 57.1356 171.202 64.4791 174.349L74.721 150.451C70.8644 148.798 67.8715 146.569 65.5126 143.789L45.6874 160.611ZM64.8204 174.489C72.3843 177.48 80.7323 178.8 89.6 178.8V152.8C83.2677 152.8 78.2824 151.853 74.3796 150.311L64.8204 174.489Z" fill="url(#paint0_radial_68_2)" mask="url(#path-1-outside-1_68_2)"/>
<mask id="path-3-outside-2_68_2" maskUnits="userSpaceOnUse" x="163" y="115" width="87" height="55" fill="black">
<rect fill="white" x="163" y="115" width="87" height="55"/>
<path d="M177.2 162.8C175.4 162.8 173.967 162.4 172.9 161.6C171.833 160.8 171.183 159.667 170.95 158.2C170.75 156.7 170.967 154.95 171.6 152.95L176.55 137.85C176.783 137.183 177.05 136.75 177.35 136.55C177.683 136.35 178.167 136.25 178.8 136.25C179.833 136.25 180.483 136.417 180.75 136.75C181.05 137.05 181.083 137.533 180.85 138.2L175.9 153.25C175.5 154.517 175.317 155.567 175.35 156.4C175.383 157.233 175.667 157.867 176.2 158.3C176.767 158.7 177.617 158.9 178.75 158.9C179.65 158.9 180.583 158.65 181.55 158.15C182.55 157.65 183.55 156.933 184.55 156C185.55 155.067 186.517 153.967 187.45 152.7C188.417 151.4 189.283 149.967 190.05 148.4L193.5 137.85C193.733 137.183 194 136.75 194.3 136.55C194.633 136.35 195.117 136.25 195.75 136.25C196.783 136.25 197.433 136.417 197.7 136.75C198 137.05 198.033 137.533 197.8 138.2L192.4 154.85C191.867 156.45 191.75 157.567 192.05 158.2C192.35 158.8 193.033 159.1 194.1 159.1C194.567 159.1 194.9 159.3 195.1 159.7C195.3 160.067 195.35 160.5 195.25 161C195.183 161.467 194.95 161.883 194.55 162.25C194.15 162.65 193.6 162.85 192.9 162.85C191.933 162.85 191.1 162.7 190.4 162.4C189.733 162.133 189.2 161.75 188.8 161.25C188.4 160.75 188.117 160.183 187.95 159.55C187.783 158.883 187.7 158.167 187.7 157.4L187.8 156.55C187.033 157.55 186.217 158.433 185.35 159.2C184.483 159.967 183.583 160.617 182.65 161.15C181.75 161.683 180.833 162.083 179.9 162.35C179 162.65 178.1 162.8 177.2 162.8ZM192.874 162.85C192.408 162.85 192.074 162.65 191.874 162.25C191.641 161.883 191.574 161.467 191.674 161C191.741 160.5 191.974 160.067 192.374 159.7C192.774 159.3 193.324 159.1 194.024 159.1C195.024 159.1 196.041 158.883 197.074 158.45C198.074 158.017 199.091 157.35 200.124 156.45C201.158 155.517 202.224 154.367 203.324 153C204.458 151.633 205.608 150.017 206.774 148.15C207.074 147.717 207.424 147.517 207.824 147.55C208.224 147.583 208.524 147.767 208.724 148.1C208.958 148.4 208.974 148.75 208.774 149.15C207.574 151.483 206.341 153.517 205.074 155.25C203.808 156.983 202.508 158.417 201.174 159.55C199.874 160.65 198.541 161.467 197.174 162C195.774 162.567 194.341 162.85 192.874 162.85ZM208.924 162.85C207.691 162.85 206.658 162.633 205.824 162.2C205.024 161.767 204.424 161.167 204.024 160.4C203.658 159.6 203.474 158.7 203.474 157.7C203.474 156.7 203.674 155.6 204.074 154.4L209.474 137.85C209.708 137.183 209.974 136.75 210.274 136.55C210.608 136.35 211.091 136.25 211.724 136.25C212.758 136.25 213.408 136.417 213.674 136.75C213.974 137.05 214.008 137.533 213.774 138.2L208.374 154.85C207.808 156.45 207.674 157.567 207.974 158.2C208.274 158.8 208.974 159.1 210.074 159.1C210.541 159.1 210.874 159.3 211.074 159.7C211.274 160.067 211.324 160.5 211.224 161C211.158 161.467 210.924 161.883 210.524 162.25C210.158 162.65 209.624 162.85 208.924 162.85ZM214.824 128.55C214.158 128.55 213.591 128.333 213.124 127.9C212.658 127.467 212.424 126.833 212.424 126C212.424 125.1 212.708 124.25 213.274 123.45C213.874 122.65 214.791 122.25 216.024 122.25C216.724 122.25 217.308 122.467 217.774 122.9C218.241 123.3 218.474 123.933 218.474 124.8C218.474 125.7 218.174 126.55 217.574 127.35C217.008 128.15 216.091 128.55 214.824 128.55ZM208.634 162.85C208.167 162.85 207.851 162.65 207.684 162.25C207.484 161.883 207.434 161.467 207.534 161C207.634 160.5 207.884 160.067 208.284 159.7C208.651 159.3 209.151 159.1 209.784 159.1C210.717 159.1 211.784 158.583 212.984 157.55C214.184 156.483 215.484 155.017 216.884 153.15C218.284 151.25 219.751 149.05 221.284 146.55C222.851 144.05 224.467 141.35 226.134 138.45C226.367 138.083 226.651 137.9 226.984 137.9C227.351 137.9 227.701 138.017 228.034 138.25C228.367 138.483 228.601 138.783 228.734 139.15C228.901 139.483 228.884 139.817 228.684 140.15C227.184 142.717 225.734 145.15 224.334 147.45C222.967 149.75 221.634 151.85 220.334 153.75C219.034 155.617 217.734 157.233 216.434 158.6C215.167 159.967 213.901 161.017 212.634 161.75C211.334 162.483 210.001 162.85 208.634 162.85ZM216.134 162C215.434 162 215.017 161.683 214.884 161.05C214.717 160.383 214.917 159.783 215.484 159.25L233.234 141H222.284C221.917 141 221.667 140.833 221.534 140.5C221.401 140.167 221.417 139.667 221.584 139C221.784 138.333 222.034 137.833 222.334 137.5C222.667 137.167 223.017 137 223.384 137H239.084C239.651 137 240.051 137.167 240.284 137.5C240.551 137.833 240.667 138.217 240.634 138.65C240.601 139.083 240.434 139.45 240.134 139.75L222.484 158H234.534C234.901 158 235.151 158.167 235.284 158.5C235.417 158.8 235.401 159.3 235.234 160C235.034 160.633 234.767 161.133 234.434 161.5C234.101 161.833 233.751 162 233.384 162H216.134Z"/>
</mask>
<path d="M177.2 162.8C175.4 162.8 173.967 162.4 172.9 161.6C171.833 160.8 171.183 159.667 170.95 158.2C170.75 156.7 170.967 154.95 171.6 152.95L176.55 137.85C176.783 137.183 177.05 136.75 177.35 136.55C177.683 136.35 178.167 136.25 178.8 136.25C179.833 136.25 180.483 136.417 180.75 136.75C181.05 137.05 181.083 137.533 180.85 138.2L175.9 153.25C175.5 154.517 175.317 155.567 175.35 156.4C175.383 157.233 175.667 157.867 176.2 158.3C176.767 158.7 177.617 158.9 178.75 158.9C179.65 158.9 180.583 158.65 181.55 158.15C182.55 157.65 183.55 156.933 184.55 156C185.55 155.067 186.517 153.967 187.45 152.7C188.417 151.4 189.283 149.967 190.05 148.4L193.5 137.85C193.733 137.183 194 136.75 194.3 136.55C194.633 136.35 195.117 136.25 195.75 136.25C196.783 136.25 197.433 136.417 197.7 136.75C198 137.05 198.033 137.533 197.8 138.2L192.4 154.85C191.867 156.45 191.75 157.567 192.05 158.2C192.35 158.8 193.033 159.1 194.1 159.1C194.567 159.1 194.9 159.3 195.1 159.7C195.3 160.067 195.35 160.5 195.25 161C195.183 161.467 194.95 161.883 194.55 162.25C194.15 162.65 193.6 162.85 192.9 162.85C191.933 162.85 191.1 162.7 190.4 162.4C189.733 162.133 189.2 161.75 188.8 161.25C188.4 160.75 188.117 160.183 187.95 159.55C187.783 158.883 187.7 158.167 187.7 157.4L187.8 156.55C187.033 157.55 186.217 158.433 185.35 159.2C184.483 159.967 183.583 160.617 182.65 161.15C181.75 161.683 180.833 162.083 179.9 162.35C179 162.65 178.1 162.8 177.2 162.8ZM192.874 162.85C192.408 162.85 192.074 162.65 191.874 162.25C191.641 161.883 191.574 161.467 191.674 161C191.741 160.5 191.974 160.067 192.374 159.7C192.774 159.3 193.324 159.1 194.024 159.1C195.024 159.1 196.041 158.883 197.074 158.45C198.074 158.017 199.091 157.35 200.124 156.45C201.158 155.517 202.224 154.367 203.324 153C204.458 151.633 205.608 150.017 206.774 148.15C207.074 147.717 207.424 147.517 207.824 147.55C208.224 147.583 208.524 147.767 208.724 148.1C208.958 148.4 208.974 148.75 208.774 149.15C207.574 151.483 206.341 153.517 205.074 155.25C203.808 156.983 202.508 158.417 201.174 159.55C199.874 160.65 198.541 161.467 197.174 162C195.774 162.567 194.341 162.85 192.874 162.85ZM208.924 162.85C207.691 162.85 206.658 162.633 205.824 162.2C205.024 161.767 204.424 161.167 204.024 160.4C203.658 159.6 203.474 158.7 203.474 157.7C203.474 156.7 203.674 155.6 204.074 154.4L209.474 137.85C209.708 137.183 209.974 136.75 210.274 136.55C210.608 136.35 211.091 136.25 211.724 136.25C212.758 136.25 213.408 136.417 213.674 136.75C213.974 137.05 214.008 137.533 213.774 138.2L208.374 154.85C207.808 156.45 207.674 157.567 207.974 158.2C208.274 158.8 208.974 159.1 210.074 159.1C210.541 159.1 210.874 159.3 211.074 159.7C211.274 160.067 211.324 160.5 211.224 161C211.158 161.467 210.924 161.883 210.524 162.25C210.158 162.65 209.624 162.85 208.924 162.85ZM214.824 128.55C214.158 128.55 213.591 128.333 213.124 127.9C212.658 127.467 212.424 126.833 212.424 126C212.424 125.1 212.708 124.25 213.274 123.45C213.874 122.65 214.791 122.25 216.024 122.25C216.724 122.25 217.308 122.467 217.774 122.9C218.241 123.3 218.474 123.933 218.474 124.8C218.474 125.7 218.174 126.55 217.574 127.35C217.008 128.15 216.091 128.55 214.824 128.55ZM208.634 162.85C208.167 162.85 207.851 162.65 207.684 162.25C207.484 161.883 207.434 161.467 207.534 161C207.634 160.5 207.884 160.067 208.284 159.7C208.651 159.3 209.151 159.1 209.784 159.1C210.717 159.1 211.784 158.583 212.984 157.55C214.184 156.483 215.484 155.017 216.884 153.15C218.284 151.25 219.751 149.05 221.284 146.55C222.851 144.05 224.467 141.35 226.134 138.45C226.367 138.083 226.651 137.9 226.984 137.9C227.351 137.9 227.701 138.017 228.034 138.25C228.367 138.483 228.601 138.783 228.734 139.15C228.901 139.483 228.884 139.817 228.684 140.15C227.184 142.717 225.734 145.15 224.334 147.45C222.967 149.75 221.634 151.85 220.334 153.75C219.034 155.617 217.734 157.233 216.434 158.6C215.167 159.967 213.901 161.017 212.634 161.75C211.334 162.483 210.001 162.85 208.634 162.85ZM216.134 162C215.434 162 215.017 161.683 214.884 161.05C214.717 160.383 214.917 159.783 215.484 159.25L233.234 141H222.284C221.917 141 221.667 140.833 221.534 140.5C221.401 140.167 221.417 139.667 221.584 139C221.784 138.333 222.034 137.833 222.334 137.5C222.667 137.167 223.017 137 223.384 137H239.084C239.651 137 240.051 137.167 240.284 137.5C240.551 137.833 240.667 138.217 240.634 138.65C240.601 139.083 240.434 139.45 240.134 139.75L222.484 158H234.534C234.901 158 235.151 158.167 235.284 158.5C235.417 158.8 235.401 159.3 235.234 160C235.034 160.633 234.767 161.133 234.434 161.5C234.101 161.833 233.751 162 233.384 162H216.134Z" fill="#070D4C"/>
<path d="M170.95 158.2L164.011 159.125L164.023 159.213L164.037 159.3L170.95 158.2ZM171.6 152.95L164.948 150.769L164.937 150.803L164.927 150.837L171.6 152.95ZM176.55 137.85L169.943 135.538L169.92 135.603L169.898 135.669L176.55 137.85ZM177.35 136.55L173.749 130.548L173.606 130.633L173.467 130.726L177.35 136.55ZM180.75 136.75L175.284 141.123L175.526 141.426L175.8 141.7L180.75 136.75ZM180.85 138.2L174.243 135.888L174.221 135.95L174.2 136.013L180.85 138.2ZM175.9 153.25L169.25 151.063L169.237 151.102L169.225 151.142L175.9 153.25ZM175.35 156.4L168.356 156.68L168.356 156.68L175.35 156.4ZM176.2 158.3L171.786 163.733L171.97 163.882L172.163 164.019L176.2 158.3ZM181.55 158.15L178.42 151.889L178.377 151.91L178.334 151.932L181.55 158.15ZM187.45 152.7L181.833 148.523L181.824 148.535L181.815 148.548L187.45 152.7ZM190.05 148.4L196.338 151.477L196.552 151.039L196.703 150.576L190.05 148.4ZM193.5 137.85L186.893 135.538L186.869 135.606L186.847 135.674L193.5 137.85ZM194.3 136.55L190.699 130.548L190.556 130.633L190.417 130.726L194.3 136.55ZM197.7 136.75L192.234 141.123L192.476 141.426L192.75 141.7L197.7 136.75ZM197.8 138.2L191.193 135.888L191.166 135.964L191.141 136.04L197.8 138.2ZM192.4 154.85L199.041 157.064L199.05 157.037L199.059 157.01L192.4 154.85ZM192.05 158.2L185.724 161.197L185.756 161.264L185.789 161.33L192.05 158.2ZM195.1 159.7L188.839 162.831L188.895 162.942L188.955 163.052L195.1 159.7ZM195.25 161L188.386 159.627L188.348 159.818L188.32 160.01L195.25 161ZM194.55 162.25L189.82 157.09L189.708 157.193L189.6 157.3L194.55 162.25ZM190.4 162.4L193.157 155.966L193.079 155.932L193 155.901L190.4 162.4ZM188.8 161.25L183.334 165.623L183.334 165.623L188.8 161.25ZM187.95 159.55L181.159 161.248L181.169 161.29L181.18 161.331L187.95 159.55ZM187.7 157.4L180.748 156.582L180.7 156.99V157.4H187.7ZM187.8 156.55L194.752 157.368L197.725 132.1L182.245 152.291L187.8 156.55ZM185.35 159.2L180.712 153.957H180.712L185.35 159.2ZM182.65 161.15L179.177 155.072L179.129 155.1L179.081 155.128L182.65 161.15ZM179.9 162.35L177.977 155.619L177.831 155.661L177.686 155.709L179.9 162.35ZM177.2 155.8C176.808 155.8 176.648 155.755 176.657 155.758C176.664 155.76 176.715 155.775 176.798 155.814C176.882 155.854 176.986 155.915 177.1 156L168.7 167.2C171.34 169.18 174.41 169.8 177.2 169.8V155.8ZM177.1 156C177.312 156.159 177.526 156.391 177.685 156.667C177.836 156.931 177.864 157.108 177.863 157.1L164.037 159.3C164.52 162.339 166.008 165.181 168.7 167.2L177.1 156ZM177.889 157.275C177.867 157.109 177.838 156.438 178.273 155.063L164.927 150.837C164.095 153.462 163.633 156.291 164.011 159.125L177.889 157.275ZM178.252 155.131L183.202 140.031L169.898 135.669L164.948 150.769L178.252 155.131ZM183.157 140.162C183.157 140.163 183.153 140.175 183.145 140.195C183.136 140.216 183.123 140.248 183.104 140.29C183.067 140.371 182.998 140.513 182.887 140.694C182.693 141.008 182.195 141.733 181.233 142.374L173.467 130.726C171.161 132.263 170.271 134.599 169.943 135.538L183.157 140.162ZM180.951 142.552C180.289 142.95 179.711 143.111 179.381 143.18C179.046 143.249 178.833 143.25 178.8 143.25V129.25C177.615 129.25 175.653 129.405 173.749 130.548L180.951 142.552ZM178.8 143.25C179.009 143.25 178.785 143.274 178.324 143.156C177.963 143.063 176.504 142.648 175.284 141.123L186.216 132.377C184.729 130.519 182.812 129.854 181.801 129.594C180.69 129.309 179.624 129.25 178.8 129.25V143.25ZM175.8 141.7C174.586 140.486 174.099 139.009 174.017 137.819C173.945 136.784 174.178 136.074 174.243 135.888L187.457 140.512C187.945 139.119 188.959 135.059 185.7 131.8L175.8 141.7ZM174.2 136.013L169.25 151.063L182.55 155.437L187.5 140.387L174.2 136.013ZM169.225 151.142C168.708 152.779 168.277 154.703 168.356 156.68L182.344 156.12C182.352 156.315 182.33 156.355 182.358 156.192C182.385 156.036 182.447 155.764 182.575 155.358L169.225 151.142ZM168.356 156.68C168.451 159.054 169.363 161.764 171.786 163.733L180.614 152.867C181.207 153.349 181.676 153.967 181.977 154.641C182.265 155.284 182.332 155.822 182.344 156.12L168.356 156.68ZM172.163 164.019C174.447 165.631 177.007 165.9 178.75 165.9V151.9C178.573 151.9 178.637 151.882 178.866 151.936C179.097 151.99 179.624 152.148 180.237 152.581L172.163 164.019ZM178.75 165.9C180.98 165.9 183.011 165.275 184.766 164.368L178.334 151.932C178.243 151.98 178.237 151.971 178.314 151.951C178.395 151.929 178.545 151.9 178.75 151.9V165.9ZM184.68 164.411C186.398 163.552 187.941 162.411 189.326 161.117L179.774 150.883C179.159 151.456 178.702 151.748 178.42 151.889L184.68 164.411ZM189.326 161.117C190.685 159.85 191.933 158.416 193.085 156.852L181.815 148.548C181.1 149.517 180.415 150.284 179.774 150.883L189.326 161.117ZM193.067 156.877C194.309 155.206 195.396 153.401 196.338 151.477L183.762 145.323C183.171 146.533 182.524 147.594 181.833 148.523L193.067 156.877ZM196.703 150.576L200.153 140.026L186.847 135.674L183.397 146.224L196.703 150.576ZM200.107 140.162C200.107 140.163 200.103 140.175 200.095 140.195C200.086 140.216 200.073 140.248 200.054 140.29C200.017 140.371 199.948 140.513 199.837 140.694C199.643 141.008 199.145 141.733 198.183 142.374L190.417 130.726C188.111 132.263 187.221 134.599 186.893 135.538L200.107 140.162ZM197.901 142.552C197.239 142.95 196.661 143.111 196.331 143.18C195.996 143.249 195.783 143.25 195.75 143.25V129.25C194.565 129.25 192.603 129.405 190.699 130.548L197.901 142.552ZM195.75 143.25C195.959 143.25 195.735 143.274 195.274 143.156C194.913 143.063 193.454 142.648 192.234 141.123L203.166 132.377C201.679 130.519 199.762 129.854 198.751 129.594C197.64 129.309 196.574 129.25 195.75 129.25V143.25ZM192.75 141.7C191.536 140.486 191.049 139.009 190.967 137.819C190.895 136.784 191.128 136.074 191.193 135.888L204.407 140.512C204.895 139.119 205.909 135.059 202.65 131.8L192.75 141.7ZM191.141 136.04L185.741 152.69L199.059 157.01L204.459 140.36L191.141 136.04ZM185.759 152.636C185.403 153.704 185.081 154.912 184.95 156.16C184.831 157.299 184.787 159.219 185.724 161.197L198.376 155.203C198.713 155.915 198.826 156.53 198.865 156.905C198.904 157.282 198.883 157.535 198.875 157.615C198.861 157.746 198.863 157.596 199.041 157.064L185.759 152.636ZM185.789 161.33C187.881 165.515 192.085 166.1 194.1 166.1V152.1C194.151 152.1 194.761 152.097 195.601 152.465C196.577 152.894 197.647 153.741 198.311 155.07L185.789 161.33ZM194.1 166.1C193.32 166.1 192.22 165.925 191.099 165.252C189.96 164.569 189.243 163.638 188.839 162.831L201.361 156.569C200.757 155.362 199.774 154.131 198.301 153.248C196.847 152.375 195.347 152.1 194.1 152.1V166.1ZM188.955 163.052C188.205 161.678 188.238 160.369 188.386 159.627L202.114 162.373C202.462 160.631 202.395 158.456 201.245 156.348L188.955 163.052ZM188.32 160.01C188.517 158.636 189.217 157.643 189.82 157.09L199.28 167.41C200.683 166.124 201.85 164.297 202.18 161.99L188.32 160.01ZM189.6 157.3C190.149 156.752 190.793 156.359 191.445 156.121C192.071 155.894 192.59 155.85 192.9 155.85V169.85C194.989 169.85 197.49 169.21 199.5 167.2L189.6 157.3ZM192.9 155.85C192.775 155.85 192.745 155.84 192.79 155.848C192.838 155.857 192.97 155.886 193.157 155.966L187.643 168.834C189.415 169.593 191.231 169.85 192.9 169.85V155.85ZM193 155.901C193.317 156.028 193.822 156.322 194.266 156.877L183.334 165.623C184.578 167.178 186.149 168.239 187.8 168.899L193 155.901ZM194.266 156.877C194.491 157.158 194.643 157.479 194.72 157.769L181.18 161.331C181.59 162.888 182.309 164.342 183.334 165.623L194.266 156.877ZM194.741 157.852C194.728 157.801 194.7 157.659 194.7 157.4H180.7C180.7 158.674 180.839 159.966 181.159 161.248L194.741 157.852ZM194.652 158.218L194.752 157.368L180.848 155.732L180.748 156.582L194.652 158.218ZM182.245 152.291C181.728 152.966 181.214 153.513 180.712 153.957L189.988 164.443C191.22 163.354 192.339 162.134 193.355 160.809L182.245 152.291ZM180.712 153.957C180.177 154.43 179.664 154.794 179.177 155.072L186.123 167.228C187.502 166.439 188.79 165.503 189.988 164.443L180.712 153.957ZM179.081 155.128C178.657 155.379 178.291 155.53 177.977 155.619L181.823 169.081C183.376 168.637 184.843 167.987 186.219 167.172L179.081 155.128ZM177.686 155.709C177.461 155.784 177.308 155.8 177.2 155.8V169.8C178.892 169.8 180.539 169.516 182.114 168.991L177.686 155.709ZM191.874 162.25L198.135 159.12L197.974 158.797L197.78 158.492L191.874 162.25ZM191.674 161L198.519 162.467L198.576 162.198L198.613 161.925L191.674 161ZM192.374 159.7L197.104 164.86L197.216 164.757L197.324 164.65L192.374 159.7ZM197.074 158.45L199.781 164.905L199.819 164.889L199.857 164.873L197.074 158.45ZM200.124 156.45L204.722 161.729L204.769 161.687L204.816 161.645L200.124 156.45ZM203.324 153L197.936 148.532L197.903 148.571L197.871 148.611L203.324 153ZM206.774 148.15L201.019 144.166L200.925 144.301L200.838 144.44L206.774 148.15ZM207.824 147.55L207.243 154.526L207.243 154.526L207.824 147.55ZM208.724 148.1L202.722 151.701L202.939 152.064L203.199 152.398L208.724 148.1ZM208.774 149.15L214.999 152.351L215.017 152.316L215.035 152.28L208.774 149.15ZM205.074 155.25L199.422 151.12L205.074 155.25ZM201.174 159.55L205.696 164.894L205.702 164.889L205.708 164.884L201.174 159.55ZM197.174 162L194.629 155.479L194.589 155.495L194.548 155.511L197.174 162ZM192.874 155.85C193.654 155.85 194.754 156.025 195.876 156.698C197.014 157.381 197.731 158.312 198.135 159.12L185.613 165.38C186.217 166.588 187.201 167.819 188.673 168.702C190.127 169.575 191.628 169.85 192.874 169.85V155.85ZM197.78 158.492C198.16 159.09 198.439 159.793 198.561 160.557C198.681 161.307 198.627 161.964 198.519 162.467L184.83 159.533C184.386 161.604 184.647 163.931 185.969 166.008L197.78 158.492ZM198.613 161.925C198.537 162.492 198.357 163.072 198.063 163.619C197.772 164.159 197.423 164.568 197.104 164.86L187.644 154.54C186.133 155.925 185.036 157.82 184.736 160.075L198.613 161.925ZM197.324 164.65C196.775 165.198 196.131 165.591 195.479 165.829C194.853 166.056 194.334 166.1 194.024 166.1V152.1C191.935 152.1 189.434 152.74 187.424 154.75L197.324 164.65ZM194.024 166.1C196.06 166.1 197.994 165.655 199.781 164.905L194.367 151.995C194.222 152.055 194.127 152.081 194.078 152.091C194.03 152.101 194.015 152.1 194.024 152.1V166.1ZM199.857 164.873C201.662 164.091 203.279 162.985 204.722 161.729L195.527 151.171C194.903 151.715 194.487 151.942 194.291 152.027L199.857 164.873ZM204.816 161.645C206.184 160.409 207.502 158.974 208.777 157.389L197.871 148.611C196.946 149.76 196.131 150.624 195.432 151.255L204.816 161.645ZM208.713 157.468C210.086 155.813 211.416 153.931 212.71 151.86L200.838 144.44C199.8 146.102 198.829 147.454 197.936 148.532L208.713 157.468ZM212.53 152.134C212.26 152.524 211.702 153.2 210.735 153.753C209.686 154.352 208.461 154.627 207.243 154.526L208.406 140.574C204.729 140.268 202.233 142.412 201.019 144.166L212.53 152.134ZM207.243 154.526C206.511 154.465 205.604 154.238 204.699 153.685C203.787 153.128 203.141 152.399 202.722 151.701L214.727 144.499C213.324 142.16 210.964 140.787 208.406 140.574L207.243 154.526ZM203.199 152.398C202.509 151.51 201.986 150.31 201.92 148.92C201.857 147.61 202.222 146.602 202.513 146.02L215.035 152.28C215.527 151.298 215.983 149.915 215.904 148.255C215.821 146.515 215.173 144.99 214.25 143.802L203.199 152.398ZM202.549 145.949C201.481 148.026 200.433 149.737 199.422 151.12L210.726 159.38C212.249 157.296 213.668 154.94 214.999 152.351L202.549 145.949ZM199.422 151.12C198.41 152.506 197.474 153.508 196.641 154.216L205.708 164.884C207.542 163.325 209.205 161.461 210.726 159.38L199.422 151.12ZM196.653 154.206C195.849 154.886 195.172 155.267 194.629 155.479L199.719 168.521C201.91 167.666 203.899 166.414 205.696 164.894L196.653 154.206ZM194.548 155.511C193.957 155.751 193.414 155.85 192.874 155.85V169.85C195.268 169.85 197.592 169.383 199.801 168.489L194.548 155.511ZM205.824 162.2L202.49 168.355L202.542 168.383L202.595 168.411L205.824 162.2ZM204.024 160.4L197.661 163.317L197.735 163.479L197.818 163.638L204.024 160.4ZM204.074 154.4L210.715 156.614L210.722 156.592L210.729 156.571L204.074 154.4ZM209.474 137.85L202.867 135.538L202.843 135.608L202.819 135.679L209.474 137.85ZM210.274 136.55L206.673 130.548L206.53 130.633L206.391 130.726L210.274 136.55ZM213.674 136.75L208.208 141.123L208.45 141.426L208.724 141.7L213.674 136.75ZM213.774 138.2L207.167 135.888L207.141 135.964L207.116 136.04L213.774 138.2ZM208.374 154.85L214.973 157.187L215.004 157.099L215.033 157.01L208.374 154.85ZM207.974 158.2L201.648 161.197L201.68 161.264L201.713 161.33L207.974 158.2ZM211.074 159.7L204.813 162.83L204.869 162.942L204.929 163.052L211.074 159.7ZM211.224 161L204.36 159.627L204.322 159.818L204.295 160.01L211.224 161ZM210.524 162.25L205.794 157.09L205.57 157.296L205.364 157.52L210.524 162.25ZM213.274 123.45L207.674 119.25L207.617 119.326L207.562 119.404L213.274 123.45ZM217.774 122.9L213.011 128.03L213.113 128.124L213.219 128.215L217.774 122.9ZM217.574 127.35L211.974 123.15L211.917 123.226L211.862 123.304L217.574 127.35ZM208.924 155.85C208.712 155.85 208.634 155.831 208.661 155.836C208.692 155.843 208.84 155.878 209.054 155.989L202.595 168.411C204.688 169.499 206.906 169.85 208.924 169.85V155.85ZM209.158 156.045C209.309 156.127 209.513 156.264 209.724 156.475C209.937 156.688 210.107 156.926 210.23 157.162L197.818 163.638C198.898 165.708 200.531 167.294 202.49 168.355L209.158 156.045ZM210.388 157.483C210.437 157.59 210.46 157.677 210.471 157.728C210.481 157.776 210.474 157.772 210.474 157.7H196.474C196.474 159.569 196.821 161.484 197.661 163.317L210.388 157.483ZM210.474 157.7C210.474 157.621 210.493 157.28 210.715 156.614L197.433 152.186C196.856 153.92 196.474 155.779 196.474 157.7H210.474ZM210.729 156.571L216.129 140.021L202.819 135.679L197.419 152.229L210.729 156.571ZM216.081 140.162C216.081 140.163 216.077 140.175 216.069 140.195C216.061 140.216 216.047 140.248 216.028 140.29C215.991 140.371 215.922 140.513 215.811 140.694C215.618 141.008 215.119 141.733 214.157 142.374L206.391 130.726C204.085 132.263 203.196 134.599 202.867 135.538L216.081 140.162ZM213.876 142.552C213.214 142.95 212.636 143.111 212.305 143.18C211.971 143.249 211.758 143.25 211.724 143.25V129.25C210.539 129.25 208.578 129.405 206.673 130.548L213.876 142.552ZM211.724 143.25C211.933 143.25 211.709 143.274 211.248 143.156C210.887 143.063 209.428 142.648 208.208 141.123L219.14 132.377C217.653 130.519 215.736 129.854 214.725 129.594C213.614 129.309 212.548 129.25 211.724 129.25V143.25ZM208.724 141.7C207.51 140.486 207.023 139.009 206.941 137.819C206.869 136.784 207.102 136.074 207.167 135.888L220.381 140.512C220.869 139.119 221.883 135.059 218.624 131.8L208.724 141.7ZM207.116 136.04L201.716 152.69L215.033 157.01L220.433 140.36L207.116 136.04ZM201.776 152.513C201.398 153.581 201.049 154.796 200.899 156.058C200.761 157.206 200.688 159.171 201.648 161.197L214.3 155.203C214.649 155.939 214.761 156.578 214.799 156.971C214.836 157.364 214.81 157.631 214.8 157.717C214.783 157.862 214.784 157.719 214.973 157.187L201.776 152.513ZM201.713 161.33C203.838 165.581 208.144 166.1 210.074 166.1V152.1C210.085 152.1 210.663 152.09 211.482 152.441C212.435 152.849 213.545 153.689 214.235 155.07L201.713 161.33ZM210.074 166.1C209.294 166.1 208.194 165.925 207.073 165.252C205.934 164.569 205.217 163.638 204.813 162.83L217.335 156.57C216.731 155.362 215.748 154.131 214.276 153.248C212.821 152.375 211.321 152.1 210.074 152.1V166.1ZM204.929 163.052C204.179 161.678 204.212 160.369 204.36 159.627L218.088 162.373C218.437 160.631 218.369 158.456 217.219 156.348L204.929 163.052ZM204.295 160.01C204.491 158.636 205.191 157.643 205.794 157.09L215.254 167.41C216.658 166.124 217.824 164.297 218.154 161.99L204.295 160.01ZM205.364 157.52C205.963 156.867 206.679 156.413 207.391 156.146C208.068 155.892 208.621 155.85 208.924 155.85V169.85C210.983 169.85 213.633 169.218 215.684 166.98L205.364 157.52ZM214.824 121.55C215.261 121.55 215.809 121.623 216.399 121.849C216.995 122.077 217.497 122.408 217.887 122.77L208.361 133.03C210.188 134.726 212.482 135.55 214.824 135.55V121.55ZM217.887 122.77C218.509 123.347 218.927 124.028 219.168 124.68C219.395 125.296 219.424 125.778 219.424 126H205.424C205.424 128.148 206.063 130.896 208.361 133.03L217.887 122.77ZM219.424 126C219.424 126.299 219.375 126.609 219.278 126.901C219.182 127.188 219.064 127.387 218.986 127.496L207.562 119.404C206.236 121.276 205.424 123.52 205.424 126H219.424ZM218.874 127.65C218.448 128.218 217.862 128.682 217.211 128.966C216.606 129.23 216.152 129.25 216.024 129.25V115.25C213.16 115.25 209.906 116.275 207.674 119.25L218.874 127.65ZM216.024 129.25C215.645 129.25 215.129 129.19 214.549 128.974C213.959 128.755 213.435 128.423 213.011 128.03L222.537 117.77C220.643 116.011 218.301 115.25 216.024 115.25V129.25ZM213.219 128.215C211.577 126.808 211.474 125.107 211.474 124.8H225.474C225.474 122.759 224.905 119.792 222.33 117.585L213.219 128.215ZM211.474 124.8C211.474 124.455 211.535 124.105 211.648 123.783C211.759 123.468 211.894 123.257 211.974 123.15L223.174 131.55C224.577 129.68 225.474 127.383 225.474 124.8H211.474ZM211.862 123.304C212.331 122.642 212.977 122.133 213.662 121.834C214.289 121.561 214.742 121.55 214.824 121.55V135.55C217.627 135.55 221.033 134.577 223.286 131.396L211.862 123.304ZM207.684 162.25L214.146 159.558L214.005 159.22L213.829 158.898L207.684 162.25ZM207.534 161L214.379 162.467L214.389 162.42L214.398 162.373L207.534 161ZM208.284 159.7L213.014 164.86L213.238 164.654L213.444 164.43L208.284 159.7ZM212.984 157.55L217.552 162.854L217.593 162.818L217.635 162.782L212.984 157.55ZM216.884 153.15L222.484 157.35L222.502 157.326L222.519 157.302L216.884 153.15ZM221.284 146.55L215.352 142.833L215.335 142.861L215.317 142.89L221.284 146.55ZM226.134 138.45L220.228 134.692L220.144 134.825L220.065 134.962L226.134 138.45ZM228.034 138.25L232.048 132.515L232.048 132.515L228.034 138.25ZM228.734 139.15L222.155 141.542L222.293 141.92L222.473 142.28L228.734 139.15ZM228.684 140.15L222.682 136.549L222.661 136.583L222.64 136.618L228.684 140.15ZM224.334 147.45L218.355 143.81L218.335 143.842L218.316 143.874L224.334 147.45ZM220.334 153.75L226.078 157.75L226.095 157.727L226.111 157.703L220.334 153.75ZM216.434 158.6L211.362 153.776L211.331 153.808L211.3 153.842L216.434 158.6ZM212.634 161.75L216.073 167.847L216.107 167.828L216.141 167.808L212.634 161.75ZM208.634 155.85C209.399 155.85 210.578 156.02 211.784 156.782C213.028 157.567 213.764 158.643 214.146 159.558L201.222 164.942C201.77 166.257 202.748 167.633 204.309 168.618C205.832 169.58 207.402 169.85 208.634 169.85V155.85ZM213.829 158.898C214.545 160.211 214.576 161.544 214.379 162.467L200.689 159.533C200.292 161.39 200.423 163.556 201.539 165.602L213.829 158.898ZM214.398 162.373C214.187 163.426 213.635 164.291 213.014 164.86L203.554 154.54C202.133 155.842 201.081 157.574 200.67 159.627L214.398 162.373ZM213.444 164.43C212.923 164.998 212.267 165.456 211.534 165.749C210.825 166.033 210.204 166.1 209.784 166.1V152.1C207.548 152.1 205.041 152.878 203.124 154.97L213.444 164.43ZM209.784 166.1C213.222 166.1 215.894 164.282 217.552 162.854L208.416 152.246C208.133 152.49 208.072 152.491 208.232 152.413C208.401 152.331 208.948 152.1 209.784 152.1V166.1ZM217.635 162.782C219.303 161.299 220.917 159.439 222.484 157.35L211.284 148.95C210.051 150.594 209.065 151.668 208.333 152.318L217.635 162.782ZM222.519 157.302C224.061 155.21 225.638 152.84 227.251 150.21L215.317 142.89C213.863 145.26 212.507 147.29 211.249 148.998L222.519 157.302ZM227.216 150.267C228.835 147.682 230.498 144.905 232.203 141.938L220.065 134.962C218.437 137.795 216.866 140.418 215.352 142.833L227.216 150.267ZM232.04 142.208C231.765 142.639 231.234 143.326 230.324 143.914C229.348 144.546 228.184 144.9 226.984 144.9V130.9C223.539 130.9 221.307 132.997 220.228 134.692L232.04 142.208ZM226.984 144.9C225.758 144.9 224.728 144.481 224.02 143.985L232.048 132.515C230.673 131.553 228.943 130.9 226.984 130.9V144.9ZM224.02 143.985C223.229 143.431 222.535 142.587 222.155 141.542L235.313 136.758C234.666 134.98 233.506 133.536 232.048 132.515L224.02 143.985ZM222.473 142.28C222.082 141.498 221.797 140.473 221.855 139.3C221.913 138.142 222.288 137.205 222.682 136.549L234.686 143.751C236.054 141.473 236.286 138.603 234.995 136.02L222.473 142.28ZM222.64 136.618C221.159 139.152 219.731 141.55 218.355 143.81L230.313 151.09C231.737 148.75 233.209 146.281 234.728 143.682L222.64 136.618ZM218.316 143.874C217.014 146.066 215.76 148.038 214.557 149.797L226.111 157.703C227.508 155.662 228.921 153.434 230.352 151.026L218.316 143.874ZM214.59 149.75C213.453 151.382 212.374 152.712 211.362 153.776L221.506 163.424C223.094 161.755 224.615 159.851 226.078 157.75L214.59 149.75ZM211.3 153.842C210.385 154.829 209.651 155.389 209.127 155.692L216.141 167.808C218.151 166.645 219.95 165.104 221.568 163.358L211.3 153.842ZM209.195 155.653C208.845 155.85 208.686 155.85 208.634 155.85V169.85C211.315 169.85 213.823 169.116 216.073 167.847L209.195 155.653ZM214.884 161.05L221.734 159.608L221.707 159.48L221.675 159.352L214.884 161.05ZM215.484 159.25L220.282 164.347L220.394 164.241L220.502 164.131L215.484 159.25ZM233.234 141L238.252 145.881L249.807 134H233.234V141ZM221.534 140.5L215.035 143.1L215.035 143.1L221.534 140.5ZM221.584 139L214.879 136.989L214.832 137.144L214.793 137.302L221.584 139ZM222.334 137.5L217.384 132.55L217.254 132.68L217.131 132.817L222.334 137.5ZM240.284 137.5L234.549 141.514L234.678 141.698L234.818 141.873L240.284 137.5ZM240.634 138.65L247.613 139.187V139.187L240.634 138.65ZM240.134 139.75L235.184 134.8L235.143 134.842L235.102 134.884L240.134 139.75ZM222.484 158L217.452 153.134L205.976 165H222.484V158ZM235.284 158.5L228.785 161.1L228.834 161.222L228.887 161.343L235.284 158.5ZM235.234 160L241.909 162.108L241.985 161.867L242.044 161.621L235.234 160ZM234.434 161.5L239.384 166.45L239.502 166.332L239.614 166.209L234.434 161.5ZM216.134 155C216.801 155 218.169 155.153 219.532 156.189C220.959 157.274 221.539 158.683 221.734 159.608L208.034 162.492C208.362 164.051 209.217 165.934 211.061 167.336C212.841 168.688 214.767 169 216.134 169V155ZM221.675 159.352C221.885 160.194 221.907 161.242 221.55 162.314C221.208 163.338 220.65 164.001 220.282 164.347L210.686 154.153C208.57 156.145 207.219 159.252 208.093 162.748L221.675 159.352ZM220.502 164.131L238.252 145.881L228.216 136.119L210.466 154.369L220.502 164.131ZM233.234 134H222.284V148H233.234V134ZM222.284 134C223.175 134 224.448 134.213 225.704 135.051C226.972 135.896 227.679 137.013 228.033 137.9L215.035 143.1C215.523 144.32 216.421 145.688 217.939 146.699C219.445 147.704 221.026 148 222.284 148V134ZM228.033 137.9C228.439 138.914 228.455 139.745 228.443 140.108C228.436 140.315 228.416 140.467 228.402 140.555C228.388 140.645 228.376 140.694 228.375 140.698L214.793 137.302C214.547 138.286 214.045 140.625 215.035 143.1L228.033 137.9ZM228.289 141.011C228.3 140.974 228.275 141.071 228.182 141.255C228.092 141.436 227.896 141.784 227.537 142.183L217.131 132.817C215.863 134.227 215.229 135.824 214.879 136.989L228.289 141.011ZM227.284 142.45C226.697 143.037 225.363 144 223.384 144V130C220.671 130 218.638 131.297 217.384 132.55L227.284 142.45ZM223.384 144H239.084V130H223.384V144ZM239.084 144C238.714 144 237.988 143.95 237.117 143.587C236.174 143.194 235.244 142.507 234.549 141.514L246.019 133.486C244.004 130.607 240.966 130 239.084 130V144ZM234.818 141.873C234.433 141.392 234.091 140.788 233.875 140.076C233.659 139.366 233.61 138.691 233.655 138.113L247.613 139.187C247.78 137.02 247.147 134.874 245.75 133.127L234.818 141.873ZM233.655 138.113C233.696 137.578 233.83 136.972 234.111 136.353C234.394 135.732 234.773 135.212 235.184 134.8L245.084 144.7C246.596 143.187 247.455 141.242 247.613 139.187L233.655 138.113ZM235.102 134.884L217.452 153.134L227.516 162.866L245.166 144.616L235.102 134.884ZM222.484 165H234.534V151H222.484V165ZM234.534 165C233.643 165 232.37 164.787 231.114 163.949C229.846 163.104 229.139 161.987 228.785 161.1L241.783 155.9C241.295 154.68 240.397 153.312 238.879 152.301C237.373 151.296 235.792 151 234.534 151V165ZM228.887 161.343C228.358 160.153 228.365 159.171 228.375 158.867C228.388 158.495 228.442 158.304 228.424 158.379L242.044 161.621C242.193 160.996 242.339 160.205 242.368 159.333C242.394 158.529 242.343 157.147 241.681 155.657L228.887 161.343ZM228.559 157.892C228.565 157.872 228.717 157.382 229.254 156.791L239.614 166.209C240.818 164.884 241.503 163.394 241.909 162.108L228.559 157.892ZM229.484 156.55C230.071 155.963 231.404 155 233.384 155V169C236.097 169 238.13 167.703 239.384 166.45L229.484 156.55ZM233.384 155H216.134V169H233.384V155Z" fill="url(#paint1_linear_68_2)" mask="url(#path-3-outside-2_68_2)"/>
<defs>
<radialGradient id="paint0_radial_68_2" cx="0" cy="0" r="1" gradientUnits="userSpaceOnUse" gradientTransform="translate(-64 103.5) rotate(-15.4959) scale(271.364 732.941)">
<stop offset="0.515261" stop-color="#0BA8BD"/>
<stop offset="0.683614" stop-color="#120452" stop-opacity="0.2"/>
<stop offset="0.830608" stop-color="#D509F7"/>
</radialGradient>
<linearGradient id="paint1_linear_68_2" x1="394.526" y1="134.833" x2="114.5" y2="152.5" gradientUnits="userSpaceOnUse">
<stop offset="0.61561" stop-color="#D509F6"/>
<stop offset="0.673661" stop-color="#120452" stop-opacity="0.5"/>
<stop offset="0.71" stop-color="#0BA8BD"/>
</linearGradient>
</defs>
</svg>
