<svg width="645" height="236" viewBox="0 0 645 236" fill="none" xmlns="http://www.w3.org/2000/svg">
<rect x="299.135" y="161.727" width="298.499" height="43.8511" rx="21.9256" transform="rotate(179.772 299.135 161.727)" fill="#283469"/>
<rect x="644.17" y="43.8508" width="298.499" height="43.8511" rx="21.9256" transform="rotate(179.772 644.17 43.8508)" fill="#283469"/>
<path d="M261.308 118.027C248.053 118.08 237.115 128.966 239.705 141.966C242.597 156.479 248.062 170.343 255.878 182.773C267.893 201.883 284.922 216.748 304.812 225.486C324.701 234.225 346.557 236.445 367.616 231.865C388.675 227.286 407.992 216.114 423.122 199.76C438.253 183.407 448.519 162.608 452.621 139.992C456.723 117.377 454.478 93.9614 446.17 72.7068C437.861 51.4521 423.862 33.313 405.942 20.5832C394.727 12.6157 382.291 6.9913 369.287 3.91907C356.388 0.871453 345.541 11.9353 345.594 25.19L345.867 93.6895C345.92 106.944 335.218 117.732 321.963 117.785L261.308 118.027Z" fill="#283469"/>
</svg>
